# xmcd CD database file
#
# Track frame offsets:
#	150
#	21680
#	23152
#	46832
#	60822
#	83955
#	101925
#	104110
#	120360
#	139997
#
# Disc length: 2235 seconds
#
# Revision: 0
# Processed by: cddbd v1.5.2PL0 Copyright (c) Steve Scherf et al.
# Submitted via: CDex 1.51
#
DISCID=8708b90a
DTITLE=Archie Shepp - Attica Blues
DYEAR=1972
DGENRE=Jazz
TTITLE0=Attica Blues
TTITLE1=Invocation: Attica Blues
TTITLE2=Steam (Part 1)
TTITLE3=Invocation To Mr. Parker
TTITLE4=Steam (Part 2)
TTITLE5=Blues For Brother George Jackson
TTITLE6=Invocation: Ballad For A Child
TTITLE7=Ballad For A Child
TTITLE8=Good-Bye Sweet Pops
TTITLE9=Quiet Dawn
EXTD=YEAR: 1972
EXTT0=
EXTT1=
EXTT2=
EXTT3=
EXTT4=
EXTT5=
EXTT6=
EXTT7=
EXTT8=
EXTT9=
PLAYORDER=
